<svg width="125" height="132" viewBox="0 0 125 132" fill="none" xmlns="http://www.w3.org/2000/svg">
<path d="M40.8003 83.3205C38.6887 83.7144 37.3068 81.1055 37.1325 78.968C36.9086 76.2214 37.433 73.4654 38.65 70.9929C39.4443 69.3786 41.091 67.706 42.7828 68.3324C44.6039 69.0105 45.6048 71.0704 45.6306 73.0142C45.6564 74.9579 44.9203 76.8113 44.1841 78.6129L43.5383 80.1434C43.0153 81.4995 42.2404 83.0492 40.8003 83.3205Z" fill="#F3C395"/>
<path d="M26.2708 55.5076C24.9732 54.8581 23.8622 53.8893 23.0421 52.6921C22.2934 51.6618 21.891 50.4205 21.8926 49.1469C21.9759 48.2457 22.1935 47.3619 22.5383 46.5251C23.3907 44.0067 24.6887 41.0943 27.3105 40.6293C29.7063 41.2751 30.8622 44.0907 30.8364 46.5768C30.8045 48.3146 30.3767 50.0222 29.5856 51.5698C28.7944 53.1174 27.6608 54.4641 26.2708 55.5076Z" fill="#F3C395"/>
<path d="M105.725 72.5492C105.934 72.051 106.257 71.6087 106.667 71.2577C107.688 70.4892 109.173 70.896 110.251 71.5935C111.36 72.3087 112.286 73.2727 112.957 74.409C113.873 75.8844 114.179 77.6585 113.809 79.3555C113.609 80.1926 113.183 80.9587 112.577 81.5702C111.971 82.1817 111.209 82.6151 110.374 82.8232C108.088 83.2946 105.75 81.5317 104.969 79.3555C104.188 77.1793 104.704 74.6543 105.725 72.5492Z" fill="#F3C395"/>
<path d="M26.8136 16.5554C26.6043 19.2529 25.5617 21.8187 23.8302 23.8977C23.4836 24.3894 22.9877 24.7563 22.416 24.9438C22.0873 24.9903 21.7524 24.9671 21.4331 24.8759C21.1139 24.7847 20.8173 24.6274 20.5627 24.4142C19.8102 23.8078 19.2195 23.0246 18.8432 22.1345C18.4668 21.2444 18.3166 20.275 18.4059 19.3127C18.6054 17.3857 19.3241 15.5489 20.4852 13.9981C21.3441 12.7712 22.5968 11.5378 24.0821 11.6928C26.1356 11.9059 26.9621 14.4954 26.8136 16.5554Z" fill="#F3C395"/>
<path d="M57.9317 63.2889C55.5553 63.7474 53.928 60.7962 53.9151 58.3811C53.9102 56.2867 54.4414 54.2259 55.4584 52.395C56.3947 50.7095 58.5193 49.1661 60.0885 50.2575C60.5393 50.6263 60.8883 51.1042 61.1024 51.6459C61.7829 53.1869 62.0762 54.871 61.9569 56.5514C61.8376 58.2318 61.3093 59.8575 60.4178 61.287C60.1565 61.7686 59.8023 62.1936 59.3755 62.5372C58.9487 62.8808 58.4579 63.1364 57.9317 63.2889Z" fill="#F3C395"/>
<path d="M5.3215 111.876C2.73847 112.251 0.936803 109.254 0.801193 106.665C0.659126 103.565 2.36387 100.039 5.42477 99.5614C6.86708 100.571 7.94354 102.021 8.49299 103.694C9.04244 105.367 9.03539 107.173 8.47281 108.841C7.96266 110.268 6.84549 111.65 5.3215 111.876Z" fill="#F3C395"/>
<path d="M54.0187 109.17C52.6256 107.77 51.7597 105.932 51.5678 103.966C51.376 102 51.87 100.029 52.9661 98.3861C53.9153 97.0429 55.7881 95.958 57.1377 96.9008C57.5182 97.1937 57.8272 97.5691 58.0417 97.9987C58.9888 99.744 59.373 101.739 59.1418 103.712C58.9106 105.684 58.0752 107.536 56.7502 109.015C56.5747 109.251 56.3507 109.446 56.0934 109.587C55.8361 109.729 55.5514 109.813 55.2586 109.835C54.7784 109.771 54.3379 109.535 54.0187 109.17Z" fill="#F3C395"/>
<path d="M3.488 78.2189C3.07648 78.0291 2.72885 77.724 2.48712 77.3407C1.51849 76.0879 0.517539 74.7576 0.285065 73.1884C0.0138469 71.3932 0.801672 69.6302 1.57658 67.9836C2.17068 66.692 2.93912 65.2779 4.30813 64.9421C6.42622 64.4255 8.09874 66.8793 8.35058 69.0555C8.51211 70.5495 8.35193 72.0606 7.88077 73.4875C7.40961 74.9143 6.63841 76.2238 5.61904 77.3277C5.05077 77.9218 4.25 78.4901 3.488 78.2189Z" fill="#F3C395"/>
<path d="M47.0313 28.3146C47.6125 26.4807 49.2657 24.6984 51.1577 25.0277C52.6623 25.2925 53.6503 26.7842 54.0313 28.2565C54.4397 30.0085 54.2668 31.8457 53.5386 33.4907C52.8105 35.1357 51.5668 36.499 49.9953 37.3746C48.6409 36.3432 47.632 34.9242 47.1027 33.3061C46.5733 31.688 46.5484 29.9472 47.0313 28.3146Z" fill="#F3C395"/>
<path d="M89.4319 85.6516C90.386 87.4264 90.7458 89.4603 90.4587 91.4547C90.1717 93.4492 89.2527 95.299 87.8368 96.7327C87.6712 96.9405 87.4542 97.1017 87.2074 97.2002C86.9606 97.2987 86.6924 97.3312 86.4291 97.2945C85.5034 96.9302 84.692 96.3249 84.0789 95.5415C83.4658 94.758 83.0732 93.825 82.942 92.8388C82.7081 90.8456 83.0557 88.8272 83.943 87.027C84.7179 85.2835 86.5259 83.4107 88.2372 84.3083C88.7545 84.6339 89.1689 85.0998 89.4319 85.6516Z" fill="#F3C395"/>
<path d="M95.2443 57.4902C96.9039 57.1867 98.473 58.5816 99.0025 60.1896C99.5321 61.7975 99.2286 63.5346 98.938 65.1942C98.6151 67.0475 98.0274 69.2302 96.2451 69.8501C95.8218 69.993 95.3697 70.029 94.9291 69.9546C94.4885 69.8802 94.0731 69.6979 93.7202 69.4239C93.3294 69.0926 93.0032 68.692 92.758 68.2421C92.0298 66.9552 91.6347 65.5066 91.6088 64.0281C91.5828 62.5496 91.9268 61.088 92.6095 59.7763C92.854 59.2252 93.2168 58.7348 93.6721 58.3397C94.1275 57.9446 94.6642 57.6546 95.2443 57.4902Z" fill="#F3C395"/>
<path d="M36.4992 15.0315C35.4302 13.3173 35.0033 11.2799 35.2941 9.28074C35.5849 7.28162 36.5748 5.45027 38.0878 4.11176C38.5094 3.72516 39.0193 3.44798 39.573 3.30456C40.9033 3.02042 42.2401 4.03423 42.7567 5.287C43.1861 6.58486 43.2596 7.9741 42.9697 9.31007C42.5823 11.9706 41.4845 15.038 38.8756 15.7031C38.458 15.8433 38.0077 15.8542 37.5837 15.7344C37.1598 15.6146 36.7817 15.3696 36.4992 15.0315Z" fill="#F3C395"/>
<path d="M122.353 51.633C121.992 51.6577 121.632 51.5721 121.32 51.3876C119.633 50.483 118.348 48.9757 117.722 47.1662C117.096 45.3567 117.175 43.3777 117.943 41.6237C118.537 40.3903 119.783 39.228 121.114 39.5444C123.18 40.0416 124.62 42.0757 124.924 44.1744C125.227 46.2732 124.588 48.4042 123.671 50.3221C123.393 50.8774 122.999 51.5167 122.353 51.633Z" fill="#F3C395"/>
<path d="M33.2379 94.1564C33.4898 95.0346 33.1346 96.0937 33.6448 96.8428C35.0331 98.935 33.5608 101.686 32.1143 103.739C31.6558 104.385 31.0553 105.108 30.261 105.031C29.8036 104.94 29.3834 104.715 29.0534 104.385C27.9234 103.468 26.7287 102.448 26.2702 101.092C25.8117 99.7357 26.1798 98.102 26.6899 96.6878C27.2001 95.2736 27.9814 93.6914 29.3311 92.9294C30.6807 92.1674 32.8117 92.6453 33.2379 94.1564Z" fill="#F3C395"/>
<path d="M80.7473 130.655C80.4755 130.983 80.1275 131.24 79.7335 131.404C78.8617 131.72 77.906 131.184 77.2409 130.532C76.4389 129.747 75.8466 128.774 75.5179 127.701C75.1893 126.629 75.1349 125.491 75.3597 124.391C75.5846 123.292 76.0815 122.267 76.805 121.41C77.5284 120.552 78.4554 119.89 79.501 119.483C80.481 119.966 81.3177 120.697 81.9282 121.603C82.5388 122.509 82.9019 123.559 82.9817 124.649C83.0393 125.75 82.8708 126.85 82.4865 127.883C82.1022 128.916 81.5103 129.859 80.7473 130.655Z" fill="#F3C395"/>
<path d="M100.41 18.5313C100.015 17.1684 99.9268 15.7349 100.152 14.3339C100.449 12.4999 101.534 10.5626 103.38 10.2075C105.227 9.8523 106.835 11.1891 107.449 12.8293C108.062 14.4695 107.759 16.3228 107.158 17.9954C106.454 19.9326 104.711 21.9732 102.741 21.3985C101.488 21.0111 100.765 19.7518 100.41 18.5313Z" fill="#F3C395"/>
<path d="M50.5837 113.942C52.4047 113.768 53.961 115.524 54.2193 117.332C54.4776 119.14 53.7995 120.949 53.0763 122.628C52.4757 124.042 51.6039 125.617 50.0864 125.856C48.567 124.818 47.4813 123.259 47.035 121.473C46.5887 119.688 46.8128 117.801 47.6648 116.17C47.9401 115.594 48.3483 115.092 48.8558 114.704C49.3632 114.317 49.9554 114.056 50.5837 113.942Z" fill="#F3C395"/>
<path d="M68.5995 77.9606C69.1674 80.3391 68.7728 82.8457 67.5016 84.9347C66.9269 85.8646 66.0616 86.7558 64.9638 86.8074C62.8135 86.9107 61.9804 84.0694 61.8577 81.9126C61.7673 80.2659 61.6898 78.5417 62.3873 77.05C63.0847 75.5583 64.8282 74.4089 66.378 74.9642C67.5985 75.4033 68.2895 76.7013 68.5995 77.9606Z" fill="#F3C395"/>
<path d="M103.174 44.8913C101.275 43.4319 99.5122 41.501 99.2023 39.1182C98.8923 36.7353 100.662 34.0231 103.077 34.1135C104.975 34.191 106.473 35.9863 106.783 37.8654C107.093 39.7446 106.473 41.6495 105.692 43.3802C105.221 44.4069 104.065 45.5758 103.174 44.8913Z" fill="#F3C395"/>
<path d="M81.6698 98.3215C82.7935 99.2772 83.0453 100.904 83.0582 102.377C83.0582 104.999 82.1219 108.189 79.5647 108.725C78.1563 107.826 77.0356 106.542 76.3359 105.024C75.5158 103.229 75.3801 100.988 76.4844 99.3482C77.5886 97.708 80.1588 97.0429 81.6698 98.3215Z" fill="#F3C395"/>
<path d="M18.9996 84.1728C18.3022 84.1405 17.8501 83.4431 17.5272 82.8232L16.4683 80.8278C16.2654 80.4716 16.0905 80.1003 15.9452 79.7171C15.0605 77.134 16.9526 74.4865 18.7995 72.4781C19.0463 72.1578 19.3804 71.9156 19.7616 71.7807C20.459 71.6128 21.1177 72.1875 21.5439 72.7752C22.6728 74.4441 23.157 76.4662 22.9063 78.4654C22.6557 80.4646 21.6873 82.3047 20.1814 83.6433C19.8671 83.9606 19.4457 84.1495 18.9996 84.1728Z" fill="#F3C395"/>
<path d="M79.9531 49.418C81.8258 51.4392 81.0251 54.6551 80.1081 57.2575C79.7142 58.3746 78.2548 58.8267 77.1312 58.4586C76.0234 57.9987 75.1102 57.1677 74.5481 56.1081C73.4374 54.2935 72.8046 51.9041 73.9024 50.0702C74.2268 49.5902 74.652 49.1867 75.1484 48.8879C75.6448 48.5891 76.2004 48.4021 76.7764 48.34C77.3525 48.2779 77.9351 48.3422 78.4838 48.5284C79.0324 48.7146 79.5338 49.0181 79.9531 49.418Z" fill="#F3C395"/>
<path d="M67.8113 15.167C68.2455 14.8918 68.7348 14.7151 69.2446 14.6493C69.7545 14.5835 70.2726 14.6301 70.7625 14.786C71.3343 15.0677 71.8152 15.5049 72.1498 16.0475C72.4845 16.59 72.6594 17.2159 72.6545 17.8533C72.6251 19.1263 72.3465 20.3813 71.8344 21.5471C71.555 22.5056 71.0627 23.3885 70.3943 24.1302C70.0526 24.4991 69.601 24.7479 69.1066 24.8398C68.6122 24.9318 68.1013 24.8617 67.6499 24.6403C66.8351 24.1365 66.1652 23.4296 65.706 22.5889C65.2467 21.7482 65.0138 20.8026 65.0301 19.8448C65.0464 18.887 65.3113 17.9499 65.7988 17.1253C66.2864 16.3007 66.9799 15.617 67.8113 15.1412V15.167Z" fill="#F3C395"/>
<path d="M114.41 109.416C112.958 108.423 111.926 106.928 111.513 105.218C111.1 103.509 111.336 101.707 112.175 100.162C112.575 99.4042 113.226 98.8086 114.016 98.4764C116.134 97.7273 118.2 100.104 118.336 102.351C118.471 104.598 117.477 106.729 117.173 108.951C117.025 110.055 115.352 110.016 114.41 109.422V109.416ZM114.371 104.592C114.371 104.999 115.152 105.011 115.184 104.592C115.217 104.172 114.39 104.191 114.371 104.592Z" fill="#F3C395"/>
<path d="M79.0032 5.53878C79.0742 3.32383 79.9718 0.62456 82.1674 0.372714C82.8531 0.336655 83.5336 0.509307 84.1193 0.867833C84.7049 1.22636 85.1681 1.75391 85.4478 2.38101C85.985 3.65274 86.129 5.05624 85.8611 6.41054C85.5382 8.58675 84.0853 11.1117 81.9026 10.8404C79.72 10.5692 78.9257 7.72145 79.0032 5.53878Z" fill="#F3C395"/>
<path d="M87.2887 33.2611L85.881 37.607C85.4806 38.8275 83.595 38.5692 82.6522 37.6974C80.0691 35.3146 81.0442 30.3229 84.2988 29.0507C85.1609 29.3732 85.9066 29.9468 86.4395 30.6973C86.9725 31.4478 87.2683 32.3408 87.2887 33.2611Z" fill="#F3C395"/>
</svg>
