<svg width="134" height="153" viewBox="0 0 134 153" fill="none" xmlns="http://www.w3.org/2000/svg">
<path d="M109.294 122.228C102.599 121.256 96.8191 115.715 95.5735 109.069C95.1252 106.708 95.1806 104.194 94.0851 102.056C92.9895 99.9178 90.0948 98.4116 88.1601 99.8592C82.1565 104.342 72.7536 101.429 68.6699 95.1455C64.5861 88.862 64.9783 80.512 67.6536 73.5132C68.3448 71.715 66.189 69.9317 64.2496 69.9987C62.3101 70.0657 60.6539 71.2663 58.8805 72.0243C50.9044 75.4295 40.5698 68.1167 41.1304 59.4656C41.3799 55.5948 43.1887 51.0947 40.5735 48.2545C36.5498 49.7291 32.3557 51.0731 28.0729 50.7648C23.7901 50.4566 19.4209 48.2128 17.7224 44.2694C14.9797 37.9165 20.0464 30.366 17.8583 23.8022C15.1228 25.3335 13.962 28.5532 12.1746 31.1118C10.3872 33.6704 6.78224 35.7781 4.29147 33.898C0.780479 31.2498 4.47771 25.8732 8.01099 23.2591L17.8983 15.9994C21.9918 12.9955 28.4227 10.259 31.4279 14.3685C32.9523 16.451 32.5878 19.3093 32.1604 21.8512L29.2801 38.8986C28.7617 41.9904 32.2281 44.5104 35.3609 44.4509C38.4936 44.3914 41.3253 42.6889 44.2036 41.4394C47.0819 40.1898 50.5604 39.3746 53.2307 41.0178C57.095 43.3996 56.7886 49.0879 55.5254 53.4517C54.2622 57.8154 52.6134 62.8199 55.1252 66.6024L67.5003 62.6151C71.6404 61.2742 77.0653 60.3077 79.5964 63.8499C80.9859 65.7966 80.8654 68.4067 80.6867 70.7926L78.7684 96.4592C85.4875 93.5525 92.7295 90.5949 99.907 92.0944C107.084 93.5938 113.171 101.809 109.757 108.269C108.127 111.351 110.935 115.159 114.225 116.316C117.514 117.472 121.132 116.992 124.583 117.481C128.035 117.97 131.803 120.051 132.172 123.52C132.858 127.313 126.494 129.705 124.508 126.398C121.681 121.693 114.723 123.02 109.294 122.228Z" fill="#F3C395"/>
</svg>
